<svg width="635" height="194" viewBox="0 0 635 194" fill="none" xmlns="http://www.w3.org/2000/svg">
<path d="M173.5 74.2438C282.983 73.9069 397.098 29.1873 440.47 6.86963C439.962 7.33452 439.451 7.79655 438.939 8.2558C356.34 82.3393 227.765 83.1716 173.5 74.2438Z" fill="#EA1C24"/>
<path d="M480.894 3.50079C457.314 3.50079 341.093 66.9448 290.563 96.5613C368.043 62.5373 438.224 55.7158 463.63 56.558C455.545 37.0195 392.606 53.1893 362.148 63.7165C496.222 10.1541 507.283 41.3988 496.054 63.7165L511.213 49.8205C543.552 -2.05758 504.475 -2.67518 480.894 3.50079Z" fill="#1D3261"/>
<path d="M54.5455 120.781C54.0483 119.053 53.3499 117.526 52.4503 116.2C51.5507 114.851 50.4498 113.714 49.1477 112.791C47.8693 111.844 46.4015 111.122 44.7443 110.625C43.1108 110.128 41.2997 109.879 39.3111 109.879C35.5942 109.879 32.3272 110.803 29.5099 112.649C26.7164 114.496 24.5384 117.183 22.9759 120.71C21.4134 124.214 20.6321 128.499 20.6321 133.565C20.6321 138.632 21.4015 142.94 22.9403 146.491C24.4792 150.043 26.6572 152.753 29.4744 154.624C32.2917 156.47 35.6179 157.393 39.4531 157.393C42.9332 157.393 45.9044 156.778 48.3665 155.547C50.8523 154.292 52.7462 152.528 54.0483 150.256C55.3741 147.983 56.0369 145.296 56.0369 142.195L59.1619 142.656H40.4119V131.08H70.8452V140.241C70.8452 146.634 69.4957 152.126 66.7969 156.719C64.098 161.288 60.3812 164.815 55.6463 167.301C50.9115 169.763 45.4901 170.994 39.3821 170.994C32.5639 170.994 26.5743 169.491 21.4134 166.484C16.2524 163.454 12.2277 159.157 9.33949 153.594C6.47491 148.007 5.04261 141.378 5.04261 133.707C5.04261 127.812 5.89489 122.557 7.59943 117.94C9.32765 113.3 11.7424 109.37 14.8438 106.151C17.9451 102.931 21.5554 100.481 25.6747 98.7997C29.794 97.1188 34.2566 96.2784 39.0625 96.2784C43.1818 96.2784 47.017 96.8821 50.5682 98.0895C54.1193 99.2732 57.268 100.954 60.0142 103.132C62.7841 105.31 65.045 107.902 66.7969 110.909C68.5488 113.892 69.6733 117.183 70.1705 120.781H54.5455ZM82.3952 170V97.2727H111.088C116.605 97.2727 121.304 98.3262 125.186 100.433C129.069 102.517 132.028 105.417 134.064 109.134C136.124 112.827 137.154 117.088 137.154 121.918C137.154 126.747 136.112 131.009 134.029 134.702C131.945 138.395 128.927 141.271 124.973 143.331C121.043 145.391 116.285 146.42 110.698 146.42H92.4094V134.098H108.212C111.171 134.098 113.61 133.589 115.527 132.571C117.469 131.529 118.913 130.097 119.86 128.274C120.83 126.428 121.316 124.309 121.316 121.918C121.316 119.503 120.83 117.396 119.86 115.597C118.913 113.774 117.469 112.365 115.527 111.371C113.586 110.353 111.124 109.844 108.141 109.844H97.7717V170H82.3952ZM186.594 118.189C186.31 115.324 185.091 113.099 182.937 111.513C180.782 109.927 177.859 109.134 174.165 109.134C171.656 109.134 169.537 109.489 167.809 110.199C166.081 110.885 164.755 111.844 163.832 113.075C162.932 114.306 162.482 115.703 162.482 117.266C162.435 118.568 162.707 119.704 163.299 120.675C163.915 121.645 164.755 122.486 165.82 123.196C166.886 123.883 168.117 124.486 169.513 125.007C170.91 125.504 172.402 125.93 173.988 126.286L180.522 127.848C183.694 128.558 186.606 129.505 189.258 130.689C191.909 131.873 194.206 133.329 196.147 135.057C198.088 136.785 199.592 138.821 200.657 141.165C201.746 143.509 202.302 146.196 202.326 149.226C202.302 153.677 201.166 157.536 198.917 160.803C196.692 164.046 193.472 166.567 189.258 168.366C185.067 170.142 180.013 171.03 174.094 171.03C168.223 171.03 163.11 170.13 158.754 168.331C154.421 166.532 151.036 163.868 148.597 160.341C146.183 156.79 144.916 152.398 144.798 147.166H159.677C159.843 149.605 160.541 151.641 161.772 153.274C163.027 154.884 164.696 156.103 166.779 156.932C168.886 157.737 171.265 158.139 173.917 158.139C176.521 158.139 178.782 157.76 180.7 157.003C182.641 156.245 184.144 155.192 185.21 153.842C186.275 152.493 186.808 150.942 186.808 149.19C186.808 147.557 186.322 146.184 185.352 145.071C184.405 143.958 183.008 143.011 181.161 142.23C179.338 141.449 177.101 140.739 174.45 140.099L166.531 138.111C160.399 136.619 155.558 134.287 152.006 131.115C148.455 127.943 146.692 123.67 146.715 118.295C146.692 113.892 147.863 110.045 150.231 106.754C152.622 103.464 155.901 100.895 160.067 99.0483C164.234 97.2017 168.969 96.2784 174.272 96.2784C179.67 96.2784 184.381 97.2017 188.406 99.0483C192.454 100.895 195.603 103.464 197.852 106.754C200.101 110.045 201.261 113.857 201.332 118.189H186.594Z" fill="#EB1C25"/>
<path d="M267.792 129.579H252.7C252.498 128.029 252.086 126.631 251.462 125.383C250.838 124.136 250.013 123.069 248.987 122.184C247.961 121.298 246.743 120.624 245.335 120.161C243.946 119.678 242.407 119.437 240.716 119.437C237.718 119.437 235.132 120.171 232.959 121.64C230.806 123.109 229.145 125.232 227.978 128.009C226.831 130.786 226.258 134.147 226.258 138.091C226.258 142.196 226.841 145.637 228.009 148.414C229.196 151.171 230.856 153.254 232.989 154.662C235.142 156.051 237.688 156.745 240.626 156.745C242.276 156.745 243.775 156.534 245.123 156.111C246.492 155.689 247.689 155.075 248.715 154.27C249.762 153.445 250.617 152.449 251.281 151.282C251.965 150.094 252.438 148.756 252.7 147.267L267.792 147.358C267.53 150.094 266.735 152.791 265.407 155.447C264.099 158.103 262.298 160.528 260.004 162.722C257.71 164.895 254.913 166.625 251.613 167.913C248.333 169.201 244.57 169.845 240.324 169.845C234.73 169.845 229.719 168.618 225.292 166.163C220.885 163.687 217.404 160.085 214.848 155.357C212.292 150.628 211.015 144.872 211.015 138.091C211.015 131.289 212.312 125.524 214.908 120.795C217.504 116.066 221.016 112.474 225.443 110.019C229.87 107.564 234.83 106.337 240.324 106.337C244.067 106.337 247.528 106.86 250.707 107.906C253.887 108.933 256.684 110.442 259.099 112.434C261.513 114.406 263.475 116.831 264.985 119.708C266.494 122.586 267.43 125.876 267.792 129.579ZM276.342 169V107.182H291.283V131.994H315.642V107.182H330.553V169H315.642V144.158H291.283V169H276.342ZM339.926 169V107.182H383.029V119.316H354.867V131.994H380.826V144.158H354.867V156.866H383.029V169H339.926ZM392.387 107.182H410.89L426.586 145.456H427.31L443.006 107.182H461.51V169H446.96V131.028H446.447L431.597 168.608H422.3L407.449 130.816H406.936V169H392.387V107.182Z" fill="#1F3264"/>
<path d="M530.026 138.091C530.026 144.893 528.718 150.658 526.102 155.387C523.486 160.116 519.944 163.708 515.477 166.163C511.029 168.618 506.039 169.845 500.505 169.845C494.951 169.845 489.95 168.608 485.503 166.132C481.056 163.657 477.524 160.065 474.908 155.357C472.312 150.628 471.015 144.872 471.015 138.091C471.015 131.289 472.312 125.524 474.908 120.795C477.524 116.066 481.056 112.474 485.503 110.019C489.95 107.564 494.951 106.337 500.505 106.337C506.039 106.337 511.029 107.564 515.477 110.019C519.944 112.474 523.486 116.066 526.102 120.795C528.718 125.524 530.026 131.289 530.026 138.091ZM514.752 138.091C514.752 134.066 514.179 130.665 513.032 127.888C511.905 125.112 510.275 123.009 508.142 121.58C506.029 120.151 503.483 119.437 500.505 119.437C497.547 119.437 495.001 120.151 492.868 121.58C490.735 123.009 489.095 125.112 487.948 127.888C486.821 130.665 486.258 134.066 486.258 138.091C486.258 142.116 486.821 145.516 487.948 148.293C489.095 151.07 490.735 153.173 492.868 154.602C495.001 156.031 497.547 156.745 500.505 156.745C503.483 156.745 506.029 156.031 508.142 154.602C510.275 153.173 511.905 151.07 513.032 148.293C514.179 145.516 514.752 142.116 514.752 138.091Z" fill="url(#paint0_linear_813_13)"/>
<path d="M554.62 107.182V169H539.679V107.182H554.62ZM564 169V107.182H578.941V156.866H604.659V169H564Z" fill="#1F3264"/>
<path d="M591.022 114V104.518L610.917 87.1001C612.408 85.7507 613.678 84.5167 614.725 83.3981C615.773 82.2617 616.572 81.1254 617.123 79.989C617.673 78.8349 617.948 77.5831 617.948 76.2337C617.948 74.7244 617.62 73.4371 616.963 72.3718C616.306 71.2887 615.4 70.4542 614.246 69.8683C613.092 69.2823 611.769 68.9893 610.278 68.9893C608.768 68.9893 607.446 69.3001 606.309 69.9215C605.173 70.5252 604.285 71.4041 603.646 72.5582C603.025 73.7124 602.714 75.1151 602.714 76.7663H590.223C590.223 73.0554 591.057 69.8505 592.726 67.1516C594.395 64.4528 596.739 62.3754 599.757 60.9194C602.794 59.4457 606.318 58.7088 610.331 58.7088C614.468 58.7088 618.064 59.4013 621.118 60.7862C624.172 62.1712 626.533 64.1065 628.202 66.5923C629.889 69.0604 630.732 71.9279 630.732 75.195C630.732 77.2724 630.315 79.332 629.48 81.3739C628.646 83.4158 627.146 85.6708 624.979 88.1388C622.831 90.6069 619.777 93.5632 615.817 97.0078L609.292 103.027V103.373H631.398V114H591.022Z" fill="black"/>
<defs>
<linearGradient id="paint0_linear_813_13" x1="535" y1="87" x2="474" y2="183" gradientUnits="userSpaceOnUse">
<stop offset="0.109299" stop-color="#EA1D24" stop-opacity="0"/>
<stop offset="0.502512" stop-color="#EA1D24"/>
</linearGradient>
</defs>
</svg>
