<svg width="1102" height="463" viewBox="0 0 1102 463" fill="none" xmlns="http://www.w3.org/2000/svg">
<path d="M41.1403 213C97.1403 153 160.14 44 160.14 0C182.94 71.2 155.64 160.667 139.14 196.5C99.9403 277.3 138.14 353.833 162.14 382C177.74 395.2 198.64 436.167 207.14 455C145.54 474.2 88.807 450.333 68.1403 436C-40.6597 360.8 4.80696 256 41.1403 213Z" fill="url(#paint0_linear_9_15)"/>
<path d="M225.64 327.5C160.04 259.9 155.974 218.333 162.14 206C126.54 276.8 147.307 329.833 162.14 347.5C200.14 385.5 220.307 432 225.64 450.5C252.44 440.1 278.14 418.167 287.64 408.5C351.64 340.1 314.307 260 287.64 228.5C215.64 164.9 187.307 104 182.14 81.5C169.74 119.1 181.307 177.167 188.64 201.5C197.04 220.7 233.474 288.833 250.64 320.5C270.64 370.9 248.974 415.5 235.64 431.5C259.64 384.3 238.974 342.5 225.64 327.5Z" fill="url(#paint1_linear_9_15)"/>
<path d="M323.484 233.79C319.481 233.79 315.742 233.079 312.266 231.657C308.79 230.182 305.735 228.155 303.102 225.574C300.469 222.993 298.415 219.991 296.94 216.568C295.518 213.092 294.807 209.353 294.807 205.35C294.807 201.4 295.518 197.713 296.94 194.29C298.415 190.867 300.442 187.891 303.023 185.363C305.656 182.782 308.711 180.781 312.187 179.359C315.663 177.937 319.402 177.226 323.405 177.226C326.196 177.226 328.909 177.621 331.542 178.411C334.228 179.201 336.651 180.307 338.81 181.729C340.969 183.151 342.734 184.784 344.103 186.627L338.573 192.394C336.993 190.867 335.36 189.603 333.675 188.602C332.042 187.601 330.357 186.838 328.619 186.311C326.881 185.784 325.143 185.521 323.405 185.521C320.561 185.521 317.928 186.021 315.505 187.022C313.135 188.023 311.028 189.418 309.185 191.209C307.394 193 305.999 195.106 304.998 197.529C303.997 199.899 303.497 202.506 303.497 205.35C303.497 208.089 304.024 210.696 305.077 213.171C306.13 215.594 307.579 217.727 309.422 219.57C311.318 221.413 313.477 222.862 315.9 223.915C318.375 224.968 320.982 225.495 323.721 225.495C325.775 225.495 327.724 225.205 329.567 224.626C331.41 223.994 333.043 223.125 334.465 222.019C335.887 220.913 336.993 219.649 337.783 218.227C338.573 216.752 338.968 215.199 338.968 213.566V211.986L340.153 213.092H323.247V204.639H347.737C347.842 205.218 347.921 205.798 347.974 206.377C348.027 206.904 348.053 207.43 348.053 207.957C348.106 208.431 348.132 208.905 348.132 209.379C348.132 213.013 347.5 216.331 346.236 219.333C344.972 222.282 343.208 224.837 340.943 226.996C338.731 229.155 336.124 230.841 333.122 232.052C330.173 233.211 326.96 233.79 323.484 233.79ZM359.242 233V177.7H381.757C384.759 177.7 387.471 178.464 389.894 179.991C392.369 181.466 394.344 183.493 395.819 186.074C397.293 188.655 398.031 191.525 398.031 194.685C398.031 197.845 397.293 200.715 395.819 203.296C394.344 205.877 392.369 207.957 389.894 209.537C387.471 211.064 384.759 211.828 381.757 211.828H367.774V233H359.242ZM367.774 203.612H381.599C383.021 203.612 384.311 203.217 385.47 202.427C386.628 201.584 387.55 200.505 388.235 199.188C388.972 197.819 389.341 196.318 389.341 194.685C389.341 193.052 388.972 191.578 388.235 190.261C387.55 188.944 386.628 187.891 385.47 187.101C384.311 186.311 383.021 185.916 381.599 185.916H367.774V203.612ZM426.375 233.79C423.373 233.79 420.582 233.395 418.001 232.605C415.473 231.815 413.156 230.63 411.049 229.05C408.995 227.417 407.152 225.416 405.519 223.046L411.365 216.331C413.946 220.018 416.421 222.572 418.791 223.994C421.161 225.416 423.979 226.127 427.244 226.127C429.245 226.127 431.062 225.811 432.695 225.179C434.328 224.547 435.618 223.678 436.566 222.572C437.514 221.466 437.988 220.202 437.988 218.78C437.988 217.832 437.83 216.937 437.514 216.094C437.198 215.251 436.698 214.488 436.013 213.803C435.381 213.118 434.538 212.486 433.485 211.907C432.484 211.328 431.299 210.827 429.93 210.406C428.561 209.932 426.981 209.537 425.19 209.221C422.346 208.642 419.871 207.878 417.764 206.93C415.657 205.982 413.893 204.797 412.471 203.375C411.049 201.953 409.996 200.347 409.311 198.556C408.626 196.713 408.284 194.659 408.284 192.394C408.284 190.182 408.758 188.128 409.706 186.232C410.707 184.336 412.05 182.703 413.735 181.334C415.473 179.912 417.501 178.832 419.818 178.095C422.135 177.305 424.637 176.91 427.323 176.91C430.167 176.91 432.774 177.279 435.144 178.016C437.514 178.753 439.621 179.859 441.464 181.334C443.307 182.756 444.835 184.52 446.046 186.627L440.042 192.552C438.989 190.814 437.804 189.366 436.487 188.207C435.17 186.996 433.722 186.1 432.142 185.521C430.562 184.889 428.877 184.573 427.086 184.573C425.032 184.573 423.241 184.889 421.714 185.521C420.187 186.153 418.975 187.048 418.08 188.207C417.237 189.313 416.816 190.63 416.816 192.157C416.816 193.263 417.027 194.29 417.448 195.238C417.869 196.133 418.501 196.95 419.344 197.687C420.239 198.372 421.424 199.004 422.899 199.583C424.374 200.11 426.138 200.584 428.192 201.005C431.089 201.637 433.669 202.453 435.934 203.454C438.199 204.402 440.121 205.534 441.701 206.851C443.281 208.168 444.466 209.642 445.256 211.275C446.099 212.908 446.52 214.672 446.52 216.568C446.52 220.097 445.704 223.151 444.071 225.732C442.438 228.313 440.121 230.314 437.119 231.736C434.117 233.105 430.536 233.79 426.375 233.79ZM503.186 233.79C499.342 233.79 495.813 233.105 492.6 231.736C489.388 230.367 486.596 228.418 484.226 225.89C481.856 223.309 480.013 220.281 478.696 216.805C477.432 213.329 476.8 209.511 476.8 205.35C476.8 201.4 477.485 197.74 478.854 194.369C480.276 190.946 482.225 187.944 484.7 185.363C487.176 182.782 490.046 180.781 493.311 179.359C496.577 177.937 500.105 177.226 503.897 177.226C506.583 177.226 509.19 177.647 511.718 178.49C514.299 179.28 516.616 180.412 518.67 181.887C520.777 183.309 522.489 184.942 523.805 186.785L518.117 192.71C516.59 191.183 515.036 189.919 513.456 188.918C511.929 187.865 510.349 187.075 508.716 186.548C507.136 186.021 505.53 185.758 503.897 185.758C501.317 185.758 498.894 186.258 496.629 187.259C494.417 188.207 492.469 189.55 490.783 191.288C489.151 193.026 487.86 195.106 486.912 197.529C485.964 199.899 485.49 202.506 485.49 205.35C485.49 208.352 485.938 211.091 486.833 213.566C487.781 215.989 489.098 218.069 490.783 219.807C492.469 221.545 494.47 222.888 496.787 223.836C499.157 224.731 501.764 225.179 504.608 225.179C506.346 225.179 508.058 224.942 509.743 224.468C511.429 223.994 513.009 223.309 514.483 222.414C515.958 221.519 517.301 220.465 518.512 219.254L522.778 226.206C521.567 227.628 519.908 228.918 517.801 230.077C515.747 231.236 513.43 232.157 510.849 232.842C508.321 233.474 505.767 233.79 503.186 233.79ZM570.471 233V177.7H579.003V233H570.471ZM534.368 233V177.7H542.9V233H534.368ZM538.081 209.537V201.321H574.263V209.537H538.081ZM594.467 233V177.7H629.306V185.916H602.999V224.784H629.306V233H594.467ZM598.338 208.747V200.531H624.961V208.747H598.338ZM642.993 233V177.7H651.367L671.512 210.485L667.483 210.406L687.865 177.7H695.765V233H687.233V210.327C687.233 205.587 687.339 201.321 687.549 197.529C687.813 193.737 688.234 189.971 688.813 186.232L689.919 189.155L671.828 217.121H666.614L649.076 189.471L649.945 186.232C650.525 189.761 650.92 193.395 651.13 197.134C651.394 200.821 651.525 205.218 651.525 210.327V233H642.993ZM734.417 233.79C730.519 233.79 726.912 233.079 723.594 231.657C720.328 230.235 717.458 228.26 714.983 225.732C712.56 223.151 710.664 220.149 709.295 216.726C707.978 213.25 707.32 209.458 707.32 205.35C707.32 201.242 707.978 197.476 709.295 194.053C710.664 190.577 712.56 187.575 714.983 185.047C717.458 182.466 720.328 180.465 723.594 179.043C726.912 177.621 730.519 176.91 734.417 176.91C738.314 176.91 741.896 177.621 745.161 179.043C748.479 180.465 751.349 182.466 753.772 185.047C756.247 187.628 758.143 190.656 759.46 194.132C760.829 197.555 761.514 201.295 761.514 205.35C761.514 209.405 760.829 213.171 759.46 216.647C758.143 220.07 756.247 223.072 753.772 225.653C751.349 228.234 748.479 230.235 745.161 231.657C741.896 233.079 738.314 233.79 734.417 233.79ZM734.417 225.495C737.103 225.495 739.552 224.995 741.764 223.994C744.028 222.993 745.977 221.598 747.61 219.807C749.243 217.964 750.507 215.831 751.402 213.408C752.35 210.933 752.824 208.247 752.824 205.35C752.824 202.453 752.35 199.794 751.402 197.371C750.507 194.896 749.243 192.763 747.61 190.972C745.977 189.129 744.028 187.707 741.764 186.706C739.552 185.705 737.103 185.205 734.417 185.205C731.731 185.205 729.255 185.705 726.991 186.706C724.779 187.707 722.83 189.102 721.145 190.893C719.512 192.684 718.248 194.817 717.353 197.292C716.457 199.715 716.01 202.401 716.01 205.35C716.01 208.247 716.457 210.933 717.353 213.408C718.248 215.883 719.512 218.016 721.145 219.807C722.83 221.598 724.779 222.993 726.991 223.994C729.255 224.995 731.731 225.495 734.417 225.495ZM769.855 233V225.1H778.782V185.6H769.855V177.7H796.241V185.6H787.314V225.1H796.241V233H769.855ZM809.634 233V177.7H818.166V224.784H844.078V233H809.634ZM879.068 233V177.7H887.6V224.784H913.512V233H879.068ZM926.36 233V177.7H934.892V224.784H960.804V233H926.36ZM994.545 233.79C990.7 233.79 987.171 233.105 983.959 231.736C980.746 230.367 977.955 228.418 975.585 225.89C973.215 223.309 971.371 220.281 970.055 216.805C968.791 213.329 968.159 209.511 968.159 205.35C968.159 201.4 968.843 197.74 970.213 194.369C971.635 190.946 973.583 187.944 976.059 185.363C978.534 182.782 981.404 180.781 984.67 179.359C987.935 177.937 991.464 177.226 995.256 177.226C997.942 177.226 1000.55 177.647 1003.08 178.49C1005.66 179.28 1007.97 180.412 1010.03 181.887C1012.14 183.309 1013.85 184.942 1015.16 186.785L1009.48 192.71C1007.95 191.183 1006.39 189.919 1004.81 188.918C1003.29 187.865 1001.71 187.075 1000.07 186.548C998.495 186.021 996.888 185.758 995.256 185.758C992.675 185.758 990.252 186.258 987.988 187.259C985.776 188.207 983.827 189.55 982.142 191.288C980.509 193.026 979.219 195.106 978.271 197.529C977.323 199.899 976.849 202.506 976.849 205.35C976.849 208.352 977.296 211.091 978.192 213.566C979.14 215.989 980.456 218.069 982.142 219.807C983.827 221.545 985.828 222.888 988.146 223.836C990.516 224.731 993.123 225.179 995.967 225.179C997.705 225.179 999.416 224.942 1001.1 224.468C1002.79 223.994 1004.37 223.309 1005.84 222.414C1007.32 221.519 1008.66 220.465 1009.87 219.254L1014.14 226.206C1012.93 227.628 1011.27 228.918 1009.16 230.077C1007.11 231.236 1004.79 232.157 1002.21 232.842C999.68 233.474 997.125 233.79 994.545 233.79Z" fill="#666699"/>
<path d="M361.168 310V254.7H374.598V310H361.168ZM367.409 288.828V277.61H396.007V288.828H367.409ZM367.409 266.55V254.7H399.246V266.55H367.409ZM407.791 310V301.073L437.495 261.573L442.156 267.024H409.845V254.7H451.557V263.548L422.011 303.127L417.271 298.229H452.426V310H407.791ZM488.666 310.79C484.506 310.79 480.661 310.105 477.132 308.736C473.656 307.314 470.628 305.339 468.047 302.811C465.467 300.23 463.465 297.202 462.043 293.726C460.674 290.197 459.989 286.326 459.989 282.113C459.989 278.005 460.727 274.213 462.201 270.737C463.676 267.261 465.704 264.259 468.284 261.731C470.918 259.15 473.999 257.149 477.527 255.727C481.109 254.305 485.006 253.594 489.219 253.594C491.853 253.594 494.433 253.936 496.961 254.621C499.489 255.306 501.833 256.333 503.992 257.702C506.204 259.019 508.1 260.599 509.68 262.442L501.464 271.843C500.358 270.684 499.173 269.684 497.909 268.841C496.698 267.946 495.355 267.261 493.88 266.787C492.406 266.313 490.826 266.076 489.14 266.076C487.034 266.076 485.032 266.471 483.136 267.261C481.293 267.998 479.66 269.078 478.238 270.5C476.869 271.869 475.789 273.555 474.999 275.556C474.209 277.557 473.814 279.796 473.814 282.271C473.814 284.694 474.209 286.906 474.999 288.907C475.789 290.856 476.895 292.541 478.317 293.963C479.739 295.385 481.451 296.465 483.452 297.202C485.506 297.939 487.771 298.308 490.246 298.308C491.932 298.308 493.538 298.071 495.065 297.597C496.593 297.123 497.988 296.491 499.252 295.701C500.569 294.858 501.728 293.91 502.728 292.857L509.206 303.127C507.89 304.602 506.125 305.918 503.913 307.077C501.754 308.236 499.331 309.157 496.645 309.842C494.012 310.474 491.352 310.79 488.666 310.79ZM555.71 310V266.55H539.278V254.7H585.967V266.55H569.14V310H555.71ZM595.468 310V254.7H634.02V266.155H608.503V298.545H634.81V310H595.468ZM601.788 287.327V276.425H630.465V287.327H601.788ZM646.386 310V254.7H671.271C674.8 254.7 677.986 255.464 680.83 256.991C683.727 258.518 685.991 260.625 687.624 263.311C689.257 265.944 690.073 268.946 690.073 272.317C690.073 275.793 689.257 278.927 687.624 281.718C685.991 284.457 683.753 286.616 680.909 288.196C678.065 289.776 674.852 290.566 671.271 290.566H659.184V310H646.386ZM677.038 310L662.976 285.036L676.722 283.061L692.364 310H677.038ZM659.184 280.296H670.086C671.455 280.296 672.64 280.006 673.641 279.427C674.694 278.795 675.484 277.926 676.011 276.82C676.59 275.714 676.88 274.45 676.88 273.028C676.88 271.606 676.564 270.368 675.932 269.315C675.3 268.209 674.378 267.366 673.167 266.787C672.008 266.208 670.586 265.918 668.901 265.918H659.184V280.296ZM701.856 310V254.7H713.864L734.009 287.485L725.398 287.406L745.78 254.7H757.314V310H744.279V292.778C744.279 288.038 744.384 283.772 744.595 279.98C744.858 276.188 745.279 272.422 745.859 268.683L747.36 272.791L732.034 296.57H726.82L711.81 272.949L713.311 268.683C713.89 272.212 714.285 275.846 714.496 279.585C714.759 283.272 714.891 287.669 714.891 292.778V310H701.856ZM770.106 310V298.703H779.428V265.997H770.106V254.7H802.259V265.997H792.858V298.703H802.259V310H770.106ZM815.033 310V254.7H827.041L856.034 294.2L853.427 293.805C853.163 292.067 852.953 290.408 852.795 288.828C852.637 287.248 852.479 285.694 852.321 284.167C852.215 282.64 852.11 281.086 852.005 279.506C851.952 277.926 851.899 276.214 851.847 274.371C851.847 272.528 851.847 270.526 851.847 268.367V254.7H864.882V310H852.716L822.459 269.236L826.488 269.789C826.751 272.317 826.962 274.476 827.12 276.267C827.33 278.005 827.488 279.559 827.594 280.928C827.752 282.297 827.857 283.535 827.91 284.641C827.962 285.747 827.989 286.853 827.989 287.959C828.041 289.012 828.068 290.197 828.068 291.514V310H815.033ZM871.726 310L893.609 254.7H904.985L926.71 310H913.122L902.694 281.955C902.273 280.849 901.852 279.664 901.43 278.4C901.009 277.136 900.588 275.846 900.166 274.529C899.745 273.16 899.324 271.843 898.902 270.579C898.534 269.262 898.218 268.051 897.954 266.945L900.324 266.866C900.008 268.183 899.64 269.473 899.218 270.737C898.85 272.001 898.455 273.265 898.033 274.529C897.665 275.74 897.243 276.978 896.769 278.242C896.295 279.453 895.848 280.717 895.426 282.034L884.998 310H871.726ZM882.154 299.414L886.341 289.302H911.779L915.887 299.414H882.154ZM933.61 310V254.7H947.04V298.15H971.688V310H933.61ZM974.121 293.094V281.481H1001.46V293.094H974.121ZM1010.16 310L1007.56 303.522L1023.67 285.905C1024.57 284.904 1025.54 283.772 1026.6 282.508C1027.65 281.244 1028.68 279.954 1029.68 278.637C1030.68 277.268 1031.47 275.951 1032.05 274.687C1032.68 273.423 1033 272.264 1033 271.211C1033 270.158 1032.76 269.236 1032.28 268.446C1031.81 267.656 1031.13 267.05 1030.23 266.629C1029.34 266.155 1028.2 265.918 1026.83 265.918C1025.62 265.918 1024.46 266.234 1023.36 266.866C1022.25 267.445 1021.2 268.367 1020.2 269.631C1019.25 270.895 1018.35 272.449 1017.51 274.292L1007.56 268.92C1008.66 265.865 1010.22 263.179 1012.22 260.862C1014.27 258.492 1016.67 256.675 1019.41 255.411C1022.15 254.094 1025.07 253.436 1028.18 253.436C1031.44 253.489 1034.39 254.2 1037.02 255.569C1039.66 256.886 1041.74 258.755 1043.27 261.178C1044.85 263.548 1045.64 266.339 1045.64 269.552C1045.64 270.658 1045.5 271.817 1045.24 273.028C1044.98 274.239 1044.58 275.503 1044.06 276.82C1043.53 278.084 1042.82 279.453 1041.92 280.928C1041.08 282.35 1040.05 283.851 1038.84 285.431C1037.63 287.011 1036.21 288.696 1034.58 290.487L1022.01 304.154L1020.43 298.15H1048.08V310H1010.16Z" fill="#666699"/>
<path d="M374.572 382.424C372.055 383.192 369.858 383.576 367.98 383.576C366.146 383.576 364.738 383.533 363.756 383.448L362.604 397.336C362.562 397.805 362.284 398.381 361.772 399.064C361.26 399.747 360.727 400.28 360.172 400.664C359.618 401.048 359.17 401.283 358.828 401.368C358.06 401.581 357.698 401.347 357.74 400.664L361.644 354.584C361.687 354.115 361.964 353.517 362.476 352.792C363.543 351.384 364.61 350.616 365.676 350.488C368.194 349.464 370.775 348.952 373.42 348.952C376.108 348.952 378.626 349.485 380.972 350.552C384.044 351.96 386.327 353.901 387.82 356.376C389.356 358.851 390.124 361.432 390.124 364.12C390.124 369.197 387.756 373.763 383.02 377.816C382.082 378.627 381.1 379.331 380.076 379.928L387.244 396.888C387.372 397.229 387.244 397.741 386.86 398.424C386.519 399.064 386.028 399.661 385.388 400.216C384.748 400.813 384.13 401.197 383.532 401.368C382.978 401.539 382.636 401.453 382.508 401.112L374.572 382.424ZM378.54 377.24C383.02 375.448 385.26 372.248 385.26 367.64C385.26 365.293 384.556 362.968 383.148 360.664C381.783 358.36 379.842 356.653 377.324 355.544C374.807 354.392 372.311 353.816 369.836 353.816C368.599 353.816 367.404 353.944 366.252 354.2L364.268 378.008C368.706 379.075 372.951 378.989 377.004 377.752C377.602 377.368 378.114 377.197 378.54 377.24ZM401.496 384.024C401.325 391.917 404.76 396.099 411.8 396.568C413.293 396.696 414.637 396.653 415.832 396.44C417.368 396.184 418.221 395.885 418.392 395.544C418.733 394.904 419.224 394.285 419.864 393.688C420.546 393.091 421.165 392.707 421.72 392.536C422.274 392.323 422.658 392.387 422.872 392.728C423.17 393.283 422.765 394.285 421.656 395.736C420.546 397.187 419.394 398.317 418.2 399.128C417.048 399.981 415.917 400.557 414.808 400.856C412.333 401.539 410.093 401.731 408.088 401.432C399.682 400.877 395.906 395.565 396.76 385.496C397.016 382.381 397.485 379.693 398.168 377.432C398.85 375.128 399.938 372.973 401.432 370.968C404.845 366.36 409.09 364.163 414.168 364.376C422.232 364.675 425.602 370.029 424.28 380.44C423.896 382.147 423.042 383.363 421.72 384.088C421.208 384.387 420.653 384.515 420.056 384.472L401.496 384.024ZM401.944 379.224C402.242 379.139 402.477 379.096 402.648 379.096L419.672 379.48C419.544 372.867 416.493 369.453 410.52 369.24C407.618 369.112 405.677 369.731 404.696 371.096C403.416 372.803 402.498 375.512 401.944 379.224ZM434.031 349.208C434.074 348.696 434.351 348.099 434.863 347.416C435.375 346.733 435.909 346.221 436.463 345.88C437.018 345.496 437.466 345.261 437.807 345.176C438.575 344.963 438.938 345.197 438.895 345.88L434.159 397.336C434.117 397.805 433.839 398.381 433.327 399.064C432.815 399.789 432.282 400.323 431.727 400.664C431.173 401.048 430.725 401.283 430.383 401.368C429.615 401.581 429.253 401.347 429.295 400.664L434.031 349.208ZM444.756 368.408C444.798 367.939 445.076 367.363 445.588 366.68C446.1 365.997 446.633 365.485 447.188 365.144C447.742 364.76 448.212 364.525 448.596 364.44C449.364 364.269 449.705 364.504 449.62 365.144L446.228 397.4C446.185 397.912 445.908 398.488 445.396 399.128C444.884 399.811 444.35 400.323 443.796 400.664C443.241 401.048 442.772 401.283 442.388 401.368C441.62 401.539 441.278 401.283 441.364 400.6L444.756 368.408ZM445.076 357.4C445.118 356.931 445.374 356.355 445.844 355.672C446.356 354.989 446.889 354.456 447.444 354.072C447.998 353.688 448.468 353.453 448.852 353.368C449.62 353.155 449.982 353.389 449.94 354.072L449.62 358.552C449.577 359.021 449.3 359.597 448.788 360.28C448.318 360.963 447.806 361.496 447.252 361.88C446.697 362.264 446.228 362.499 445.844 362.584C445.076 362.797 444.713 362.563 444.756 361.88L445.076 357.4ZM481.647 394.648C482.202 394.563 482.522 394.733 482.607 395.16C482.693 395.544 482.501 396.077 482.031 396.76C481.605 397.443 480.858 398.211 479.791 399.064C478.725 399.917 477.594 400.579 476.399 401.048C474.053 401.987 472.602 401.56 472.047 399.768C471.791 399.043 471.685 397.699 471.727 395.736C469.509 398.424 467.269 400.173 465.007 400.984C462.746 401.795 460.634 401.923 458.671 401.368C452.57 399.661 450.735 392.621 453.167 380.248C453.978 376.152 455.407 372.781 457.455 370.136C460.954 365.613 465.242 363.693 470.319 364.376C472.453 364.632 474.117 365.421 475.311 366.744C476.293 365.421 477.317 364.632 478.383 364.376C478.725 364.291 478.981 364.333 479.151 364.504C479.365 364.632 479.45 364.867 479.407 365.208C476.933 383.256 476.058 393.411 476.783 395.672C477.125 396.696 477.679 397.016 478.447 396.632C478.789 396.461 479.279 396.12 479.919 395.608C480.559 395.053 481.135 394.733 481.647 394.648ZM472.047 389.336C472.346 385.923 472.559 383.747 472.687 382.808C473.797 374.445 471.727 369.923 466.479 369.24C465.199 369.069 464.09 369.091 463.151 369.304C461.871 369.56 460.997 369.965 460.527 370.52C459.461 371.885 458.586 374.317 457.903 377.816C457.221 381.315 456.922 384.408 457.007 387.096C457.263 392.387 459.141 395.523 462.639 396.504C465.327 397.272 467.397 396.781 468.847 395.032C469.914 393.752 470.981 391.853 472.047 389.336ZM499.671 401.432C496.045 401.432 493.25 400.195 491.287 397.72C491.159 398.147 490.861 398.637 490.391 399.192C489.965 399.789 489.474 400.28 488.919 400.664C488.365 401.048 487.917 401.283 487.575 401.368C486.807 401.581 486.445 401.347 486.487 400.664L490.967 349.528C491.01 349.059 491.287 348.483 491.799 347.8C492.311 347.117 492.845 346.584 493.399 346.2C493.954 345.816 494.402 345.581 494.743 345.496C495.511 345.283 495.874 345.517 495.831 346.2L493.975 367.512C496.279 365.379 498.818 364.333 501.591 364.376C507.01 364.419 510.722 366.04 512.727 369.24C514.733 372.44 515.074 376.941 513.751 382.744C512.429 388.504 510.743 392.835 508.695 395.736C507.33 397.613 505.815 399.021 504.151 399.96C502.53 400.941 501.037 401.432 499.671 401.432ZM492.631 382.936C492.631 382.979 492.631 383.021 492.631 383.064C493.357 392.067 496.898 396.568 503.255 396.568C504.151 396.568 504.663 396.504 504.791 396.376C504.962 396.205 505.09 396.056 505.175 395.928L505.303 395.736C506.626 393.901 507.799 390.765 508.823 386.328C510.103 380.611 509.847 376.344 508.055 373.528C506.306 370.712 502.957 369.283 498.007 369.24C496.77 369.24 495.853 369.432 495.255 369.816C494.701 370.499 494.21 371.885 493.783 373.976C493.357 376.024 493.122 377.539 493.079 378.52C493.037 379.459 492.951 380.056 492.823 380.312L492.631 382.936ZM523.656 349.208C523.699 348.696 523.976 348.099 524.488 347.416C525 346.733 525.534 346.221 526.088 345.88C526.643 345.496 527.091 345.261 527.432 345.176C528.2 344.963 528.563 345.197 528.52 345.88L523.784 397.336C523.742 397.805 523.464 398.381 522.952 399.064C522.44 399.789 521.907 400.323 521.352 400.664C520.798 401.048 520.35 401.283 520.008 401.368C519.24 401.581 518.878 401.347 518.92 400.664L523.656 349.208ZM536.621 384.024C536.45 391.917 539.885 396.099 546.925 396.568C548.418 396.696 549.762 396.653 550.957 396.44C552.493 396.184 553.346 395.885 553.517 395.544C553.858 394.904 554.349 394.285 554.989 393.688C555.671 393.091 556.29 392.707 556.845 392.536C557.399 392.323 557.783 392.387 557.997 392.728C558.295 393.283 557.89 394.285 556.781 395.736C555.671 397.187 554.519 398.317 553.325 399.128C552.173 399.981 551.042 400.557 549.933 400.856C547.458 401.539 545.218 401.731 543.213 401.432C534.807 400.877 531.031 395.565 531.885 385.496C532.141 382.381 532.61 379.693 533.293 377.432C533.975 375.128 535.063 372.973 536.557 370.968C539.97 366.36 544.215 364.163 549.293 364.376C557.357 364.675 560.727 370.029 559.405 380.44C559.021 382.147 558.167 383.363 556.845 384.088C556.333 384.387 555.778 384.515 555.181 384.472L536.621 384.024ZM537.069 379.224C537.367 379.139 537.602 379.096 537.773 379.096L554.797 379.48C554.669 372.867 551.618 369.453 545.645 369.24C542.743 369.112 540.802 369.731 539.821 371.096C538.541 372.803 537.623 375.512 537.069 379.224ZM614.019 362.648C613.678 363.288 613.187 363.907 612.547 364.504C611.907 365.059 611.289 365.443 610.691 365.656C610.094 365.827 609.71 365.763 609.539 365.464C608.089 362.691 606.083 360.387 603.523 358.552C600.963 356.717 598.233 355.651 595.331 355.352C593.539 355.181 591.961 355.309 590.595 355.736C589.273 356.12 588.334 356.589 587.779 357.144C587.267 357.699 586.883 358.701 586.627 360.152C586.371 361.56 586.606 363.117 587.331 364.824C588.057 366.531 589.209 367.96 590.787 369.112C592.366 370.221 594.307 371.181 596.611 371.992C596.739 372.035 597.571 372.333 599.107 372.888C600.643 373.4 601.817 373.827 602.627 374.168C608.131 376.515 611.225 379.992 611.907 384.6C612.377 387.672 611.63 390.68 609.667 393.624C608.558 395.331 607.193 396.803 605.571 398.04C601.518 401.112 597.102 402.243 592.323 401.432C589.123 400.877 586.201 399.576 583.555 397.528C580.91 395.437 578.862 392.899 577.411 389.912C577.241 389.571 577.326 389.08 577.667 388.44C578.051 387.8 578.563 387.203 579.203 386.648C579.843 386.051 580.441 385.667 580.995 385.496C581.593 385.283 581.977 385.347 582.147 385.688C583.555 388.504 585.497 390.893 587.971 392.856C590.489 394.819 593.091 396.035 595.779 396.504C598.51 396.973 600.75 396.909 602.499 396.312C604.291 395.672 605.465 394.925 606.019 394.072C607.043 392.493 607.385 390.573 607.043 388.312C606.446 384.259 603.587 381.123 598.467 378.904C597.699 378.563 596.547 378.157 595.011 377.688C591.043 376.323 588.185 375 586.435 373.72C584.686 372.44 583.385 370.84 582.531 368.92C581.678 366.957 581.465 364.803 581.891 362.456C582.361 360.109 583.641 357.827 585.731 355.608C589.529 351.683 593.966 349.976 599.043 350.488C602.243 350.829 605.187 351.981 607.875 353.944C610.606 355.864 612.739 358.275 614.275 361.176C614.446 361.475 614.361 361.965 614.019 362.648ZM635.461 393.816C636.015 393.688 636.335 393.837 636.421 394.264C636.506 394.648 636.335 395.181 635.909 395.864C635.482 396.504 634.65 397.336 633.413 398.36C632.175 399.341 630.81 400.152 629.317 400.792C626.373 401.987 624.175 401.688 622.725 399.896C621.359 398.317 620.997 395.309 621.637 390.872L623.301 371.608H618.437C617.797 371.608 617.626 371.203 617.925 370.392C618.266 369.325 618.906 368.451 619.845 367.768C620.826 367.043 621.551 366.68 622.021 366.68H623.749L624.709 355.736C624.751 355.267 625.029 354.691 625.541 354.008C626.053 353.325 626.586 352.792 627.141 352.408C627.695 352.024 628.143 351.789 628.485 351.704C629.253 351.491 629.615 351.725 629.573 352.408L628.357 366.68C630.234 366.68 632.09 366.68 633.925 366.68C634.565 366.68 634.735 367.107 634.437 367.96C634.095 369.027 633.434 369.901 632.453 370.584C631.514 371.267 630.81 371.608 630.341 371.608H627.909L626.501 387.608C626.501 387.651 626.501 387.693 626.501 387.736C625.903 391.576 626.181 394.136 627.333 395.416C628.399 396.739 629.701 397.059 631.237 396.376C631.962 396.035 632.709 395.544 633.477 394.904C634.287 394.264 634.949 393.901 635.461 393.816ZM661.196 364.376C669.047 365.059 672.204 371.48 670.668 383.64C670.028 388.504 668.599 392.408 666.38 395.352C662.967 399.875 658.722 401.901 653.644 401.432C645.026 400.664 641.378 395.117 642.7 384.792C643.084 381.848 643.639 379.267 644.364 377.048C645.132 374.829 646.263 372.76 647.756 370.84C651.383 366.061 655.863 363.907 661.196 364.376ZM657.484 369.24C654.242 368.941 652.044 369.56 650.892 371.096C650.252 371.907 649.612 373.251 648.972 375.128C648.332 376.963 647.863 379.117 647.564 381.592C646.37 390.893 649.634 395.885 657.356 396.568C660.3 396.824 662.242 396.333 663.18 395.096C663.65 394.456 664.14 393.411 664.652 391.96C665.164 390.467 665.548 388.76 665.804 386.84C667.255 375.704 664.482 369.837 657.484 369.24ZM679.506 368.408C679.548 367.939 679.826 367.363 680.338 366.68C680.85 365.997 681.383 365.485 681.938 365.144C682.492 364.76 682.962 364.525 683.346 364.44C684.114 364.269 684.455 364.504 684.37 365.144L684.05 367.96C687.335 365.187 690.727 363.992 694.226 364.376C694.823 364.461 694.972 364.909 694.674 365.72C694.247 366.829 693.543 367.704 692.562 368.344C691.58 368.984 690.898 369.283 690.514 369.24C688.338 368.984 686.482 369.432 684.946 370.584C684.22 371.139 683.708 372.44 683.41 374.488L680.978 397.4C680.935 397.912 680.658 398.488 680.146 399.128C679.634 399.811 679.1 400.323 678.546 400.664C677.991 401.048 677.522 401.283 677.138 401.368C676.37 401.539 676.028 401.283 676.114 400.6L678.482 378.2C678.482 378.115 678.503 377.944 678.546 377.688L679.506 368.408ZM724.272 394.648C724.827 394.563 725.147 394.733 725.232 395.16C725.318 395.544 725.126 396.077 724.656 396.76C724.23 397.443 723.483 398.211 722.416 399.064C721.35 399.917 720.219 400.579 719.024 401.048C716.678 401.987 715.227 401.56 714.672 399.768C714.416 399.043 714.31 397.699 714.352 395.736C712.134 398.424 709.894 400.173 707.632 400.984C705.371 401.795 703.259 401.923 701.296 401.368C695.195 399.661 693.36 392.621 695.792 380.248C696.603 376.152 698.032 372.781 700.08 370.136C703.579 365.613 707.867 363.693 712.944 364.376C715.078 364.632 716.742 365.421 717.936 366.744C718.918 365.421 719.942 364.632 721.008 364.376C721.35 364.291 721.606 364.333 721.776 364.504C721.99 364.632 722.075 364.867 722.032 365.208C719.558 383.256 718.683 393.411 719.408 395.672C719.75 396.696 720.304 397.016 721.072 396.632C721.414 396.461 721.904 396.12 722.544 395.608C723.184 395.053 723.76 394.733 724.272 394.648ZM714.672 389.336C714.971 385.923 715.184 383.747 715.312 382.808C716.422 374.445 714.352 369.923 709.104 369.24C707.824 369.069 706.715 369.091 705.776 369.304C704.496 369.56 703.622 369.965 703.152 370.52C702.086 371.885 701.211 374.317 700.528 377.816C699.846 381.315 699.547 384.408 699.632 387.096C699.888 392.387 701.766 395.523 705.264 396.504C707.952 397.272 710.022 396.781 711.472 395.032C712.539 393.752 713.606 391.853 714.672 389.336ZM754.968 366.424C755.822 365.357 756.568 364.739 757.208 364.568C758.275 364.269 758.787 364.44 758.744 365.08C757.891 378.947 757.251 387.373 756.824 390.36C756.483 393.901 755.928 396.952 755.16 399.512C754.392 402.072 753.134 404.525 751.384 406.872C749.678 409.261 747.672 411.032 745.368 412.184C743.064 413.336 740.739 413.891 738.392 413.848C733.571 413.805 730.264 412.312 728.472 409.368C728.302 409.069 728.366 408.579 728.664 407.896C729.006 407.256 729.496 406.637 730.136 406.04C730.776 405.485 731.395 405.101 731.992 404.888C732.59 404.675 732.995 404.717 733.208 405.016C734.744 407.619 737.667 408.941 741.976 408.984C745.048 409.027 747.16 408.216 748.312 406.552C749.934 404.291 751.086 400.643 751.768 395.608C749.55 398.339 747.288 400.109 744.984 400.92C742.723 401.773 740.611 401.923 738.648 401.368C732.547 399.661 730.712 392.621 733.144 380.248C733.955 376.152 735.384 372.781 737.432 370.136C740.931 365.613 745.219 363.693 750.296 364.376C752.216 364.632 753.774 365.315 754.968 366.424ZM752.472 388.44C752.771 385.155 752.899 383.512 752.856 383.512C752.686 383.384 752.622 383.149 752.664 382.808C753.774 374.445 751.704 369.923 746.456 369.24C745.176 369.069 744.067 369.091 743.128 369.304C741.806 369.56 740.931 369.965 740.504 370.52C739.438 371.885 738.563 374.317 737.88 377.816C737.198 381.315 736.899 384.408 736.984 387.096C737.24 392.387 739.118 395.523 742.616 396.504C745.304 397.272 747.374 396.781 748.824 395.032C749.934 393.709 751.043 391.725 752.152 389.08C752.238 388.867 752.344 388.653 752.472 388.44ZM767.308 384.024C767.138 391.917 770.572 396.099 777.612 396.568C779.106 396.696 780.45 396.653 781.644 396.44C783.18 396.184 784.034 395.885 784.204 395.544C784.546 394.904 785.036 394.285 785.676 393.688C786.359 393.091 786.978 392.707 787.532 392.536C788.087 392.323 788.471 392.387 788.684 392.728C788.983 393.283 788.578 394.285 787.468 395.736C786.359 397.187 785.207 398.317 784.012 399.128C782.86 399.981 781.73 400.557 780.62 400.856C778.146 401.539 775.906 401.731 773.9 401.432C765.495 400.877 761.719 395.565 762.572 385.496C762.828 382.381 763.298 379.693 763.98 377.432C764.663 375.128 765.751 372.973 767.244 370.968C770.658 366.36 774.903 364.163 779.98 364.376C788.044 364.675 791.415 370.029 790.092 380.44C789.708 382.147 788.855 383.363 787.532 384.088C787.02 384.387 786.466 384.515 785.868 384.472L767.308 384.024ZM767.756 379.224C768.055 379.139 768.29 379.096 768.46 379.096L785.484 379.48C785.356 372.867 782.306 369.453 776.332 369.24C773.431 369.112 771.49 369.731 770.508 371.096C769.228 372.803 768.311 375.512 767.756 379.224Z" fill="#F5F5F5"/>
<defs>
<linearGradient id="paint0_linear_9_15" x1="170.14" y1="475.5" x2="160.64" y2="-11.5" gradientUnits="userSpaceOnUse">
<stop offset="0.266293" stop-color="#33334D"/>
<stop offset="0.635417" stop-color="#3E3E5D" stop-opacity="0.788943"/>
<stop offset="0.979167" stop-color="#666699" stop-opacity="0"/>
</linearGradient>
<linearGradient id="paint1_linear_9_15" x1="351.64" y1="326.5" x2="347.64" y2="88" gradientUnits="userSpaceOnUse">
<stop stop-color="#003333"/>
<stop offset="0.468689" stop-color="#003333" stop-opacity="0.723958"/>
<stop offset="1" stop-color="#003333" stop-opacity="0"/>
<stop offset="1" stop-color="#003333" stop-opacity="0.383228"/>
</linearGradient>
</defs>
</svg>
